<?xml version="1.0" encoding="UTF-8"?>
<svg xmlns="http://www.w3.org/2000/svg" version="1.1" viewBox="0 0 360 360">
  <defs>
    <style>
      .cls-1 {
        fill: #fbb040;
      }

      .cls-2 {
        fill: #939598;
      }
    </style>
  </defs>
  <!-- Generator: Adobe Illustrator 28.7.4, SVG Export Plug-In . SVG Version: 1.2.0 Build 166)  -->
  <g>
    <g id="Layer_1">
      <path class="cls-2" d="M302.15,219.18c0,1.36-.02,2.72-.07,4.08-.2,6.25-.88,12.37-1.98,18.35-2.75,14.78-8.14,28.62-15.7,41.01-21.42,35.21-60.17,58.71-104.39,58.71s-82.96-23.5-104.39-58.71c-7.88-12.93-13.42-27.44-16.04-42.95-.91-5.36-1.46-10.84-1.64-16.42-.05-1.35-.07-2.71-.07-4.08,0-10.06,1.22-19.84,3.52-29.2,3.03-12.34,7.93-23.96,14.39-34.51,5.49-8.96,12.09-17.15,19.63-24.39,21.95-21.09,51.77-34.05,84.61-34.05s62.87,13.06,84.85,34.29c7.44,7.17,13.96,15.29,19.39,24.15,6.46,10.55,11.37,22.17,14.4,34.51,2.29,9.36,3.51,19.14,3.51,29.2Z"/>
      <path class="cls-1" d="M150.47,189.98c0,12.35-3.79,23.81-10.27,33.28-10.63,15.55-28.5,25.76-48.76,25.76-11.74,0-22.68-3.43-31.88-9.34-.91-5.36-1.46-10.84-1.64-16.42-.05-1.35-.07-2.71-.07-4.08,0-10.06,1.22-19.84,3.52-29.2,3.03-12.34,7.93-23.96,14.39-34.51,5.49-8.96,12.09-17.15,19.63-24.39,30.76,2.03,55.08,27.63,55.08,58.89Z"/>
      <path class="cls-1" d="M302.15,219.18c0,1.36-.02,2.72-.07,4.08-.2,6.25-.88,12.37-1.98,18.35-8.48,4.72-18.25,7.4-28.64,7.4-32.6,0-59.04-26.43-59.04-59.04,0-12.88,4.13-24.8,11.14-34.51,9.51-13.17,24.31-22.26,41.29-24.15,7.44,7.17,13.96,15.29,19.39,24.15,6.46,10.55,11.37,22.17,14.4,34.51,2.29,9.36,3.51,19.14,3.51,29.2Z"/>
      <path class="cls-1" d="M284.39,282.62c-21.42,35.21-60.17,58.71-104.39,58.71s-82.96-23.5-104.39-58.71c22.79-11.19,61.05-18.53,104.39-18.53s81.6,7.33,104.39,18.53Z"/>
      <polygon class="cls-1" points="114.97 116 82.15 83.02 104.95 77.65 54.17 28.07 156.64 79.97 127.12 92.61 153.52 108.94 114.97 116"/>
      <polygon class="cls-1" points="244.64 116 277.46 83.02 254.66 77.65 305.44 28.07 202.97 79.97 232.49 92.61 206.09 108.94 244.64 116"/>
    </g>
  </g>
</svg>